<?xml version="1.0" encoding="utf-8"?>
<!-- Generator: Adobe Illustrator 23.0.0, SVG Export Plug-In . SVG Version: 6.00 Build 0)  -->
<svg version="1.1" id="Calque_1" xmlns="http://www.w3.org/2000/svg" xmlns:xlink="http://www.w3.org/1999/xlink" x="0px" y="0px"
	 viewBox="0 0 209.89 223.28" style="enable-background:new 0 0 209.89 223.28;" xml:space="preserve">
<style type="text/css">
	.st0{fill:#004899;}
	.st1{fill:#FFFFFF;}
	.st2{fill:#CBA43D;}
</style>
<g>
	<path class="st0" d="M96.79,104.29c-18.11-0.48-34.94-3.67-49.17-8.81c0,25.55,0,27.7,0,52.41c2.55,18.75,13.56,33.74,25.09,44.66
		c1.76,1.7,3.6,3.33,5.5,4.89c8.32,6.85,17.39,12.24,21.83,14.74c0,0.03,0,0.06,0,0.09c1.75,0.94,2.77,1.42,2.78,1.43
		c0.05-0.02,49.42-23.26,55.2-65.8c0-25.19,0-26.93,0-53.95C141.34,100.96,119.97,104.9,96.79,104.29z"/>
	<path class="st1" d="M127.94,114.34c0.12-0.59,0.38-1,0.75-1.33c0.37-0.32,0.78-0.58,1.23-0.91c-0.54,0-1.01,0-1.56,0
		c0.28-0.38,0.62-0.5,0.99-0.53c0.36-0.02,0.72-0.01,1.15-0.01c-0.3-0.15-0.54-0.28-0.79-0.4c0.01-0.03,0.02-0.05,0.02-0.08
		c0.8-0.09,1.58,0.12,2.45,0.27c-0.16-0.2-0.27-0.33-0.39-0.47c0.35-0.16,0.84-0.05,2.13,0.45c0.01-0.11,0.03-0.21,0.06-0.42
		c0.39,0.33,0.73,0.61,1.04,0.87c0.18-0.16,0.36-0.32,0.55-0.48c0.03,0.02,0.06,0.04,0.09,0.06c0.02,0.21,0.04,0.43,0.07,0.66
		c0.15-0.03,0.29-0.05,0.48-0.08c-0.15,0.58,0.28,0.61,0.63,0.71c0.81,0.23,1.6,0.17,2.41-0.07c1.11-0.32,2.21-0.72,3.34-0.89
		c2-0.3,4.02-0.32,5.92,0.55c0.75,0.34,1.48,0.75,1.93,1.49c0.75,1.23,0.57,2.58-0.46,3.64c-0.95,0.98-2.11,1.44-3.47,1.39
		c-1.48-0.06-2.95-0.14-4.43-0.21c-0.05,0-0.1-0.01-0.15-0.01c-0.01,0.03-0.02,0.06-0.01,0.06c0.79,0.87,1.52,1.8,2.65,2.28
		c0.79,0.33,1.58,0.35,2.38,0.05c0.05-0.02,0.09-0.04,0.14-0.05c0.03-0.01,0.06,0.01,0.11,0.01c0,0.09,0,0.18,0,0.27
		c-0.01,0.45,0.11,0.57,0.57,0.56c0.23-0.01,0.45-0.04,0.73-0.07c-0.04,0.18-0.07,0.32-0.1,0.46c-0.04,0.22,0.02,0.35,0.28,0.33
		c0.17-0.01,0.34-0.01,0.51,0.02c0.07,0.01,0.12,0.11,0.18,0.17c-0.06,0.05-0.11,0.12-0.17,0.14c-0.12,0.05-0.25,0.07-0.45,0.12
		c0.23,0.17,0.42,0.3,0.59,0.44c0.09,0.07,0.17,0.17,0.25,0.26c-0.12,0.04-0.23,0.09-0.35,0.13c-0.06,0.02-0.13,0.02-0.27,0.05
		c0.26,0.22,0.48,0.4,0.73,0.61c-0.15,0.11-0.27,0.22-0.42,0.33c0.46,0.46,1.01-0.12,1.48,0.18c-0.01,0.07-0.01,0.17-0.02,0.26
		c1.06,0.44,1.32,0.92,0.86,1.65c-0.19-0.3-0.37-0.63-0.79-0.56c0.01,0.02,0.03,0.05,0.04,0.07c-0.08,0.07-0.15,0.15-0.24,0.22
		c-0.16,0.13-0.33,0.26-0.5,0.39c0.15,0.15,0.28,0.33,0.44,0.46c0.18,0.14,0.41,0.22,0.58,0.37c0.24,0.22,0.22,0.42,0.06,0.7
		c-0.07,0.12-0.1,0.28-0.09,0.41c0.03,0.67-0.21,1.07-0.88,1.35c-0.02-0.09-0.05-0.17-0.07-0.25c-0.04-0.17-0.07-0.36-0.13-0.52
		c-0.16-0.42-0.33-0.48-0.74-0.25c-0.05-0.11-0.09-0.25-0.17-0.33c-0.09-0.09-0.22-0.2-0.33-0.2c-0.09,0-0.21,0.14-0.26,0.24
		c-0.23,0.48-0.35,0.58-0.75,0.53c-0.06-0.01-0.12-0.02-0.17-0.05c-0.28-0.16-0.45-0.11-0.6,0.2c-0.09,0.19-0.15,0.38-0.23,0.58
		c-0.75-0.37-0.82-1-0.42-1.46c0.05-0.06,0.08-0.17,0.07-0.25c-0.07-0.31,0.07-0.5,0.34-0.62c0.11-0.05,0.21-0.11,0.31-0.17
		c0-0.03-0.01-0.05-0.01-0.08c-0.1,0.01-0.22-0.02-0.31,0.02c-0.31,0.12-0.6,0.28-0.91,0.39c-0.11,0.04-0.25,0.02-0.37,0.04
		c-0.08,0.01-0.17,0.02-0.24,0.07c-0.31,0.21-0.49,0.53-0.57,0.89c-0.02,0.1-0.04,0.19-0.06,0.3c-0.59-0.28-0.77-1.12-0.36-1.66
		c0.12-0.17,0.36-0.29,0.22-0.57c-0.01-0.02,0.17-0.21,0.26-0.21c0.45,0,0.83-0.15,1.19-0.41c0.2-0.14,0.48-0.18,0.73-0.25
		c0.15-0.04,0.31-0.05,0.46-0.07c-0.01-0.47-0.09-0.89-0.5-1.16c-0.02-0.01-0.03-0.03-0.04-0.04c-0.33-0.63-0.94-0.71-1.55-0.8
		c-1.1-0.17-2.21-0.32-3.3-0.52c-1.08-0.2-2.04-0.67-2.86-1.4c-0.17-0.16-0.32-0.2-0.52-0.05c-0.29,0.22-0.62,0.4-0.91,0.64
		c-0.23,0.19-0.2,0.35,0.07,0.48c0.23,0.11,0.49,0.18,0.73,0.27c0.52,0.19,0.6,0.34,0.6,0.89c0,0.17,0.13,0.36,0.24,0.51
		c0.1,0.14,0.26,0.24,0.39,0.35c-0.01,0.03-0.02,0.05-0.03,0.08c-0.11,0-0.23,0-0.34,0c-0.4,0-0.49,0.09-0.43,0.48
		c0.02,0.13,0.06,0.26,0.05,0.39c-0.01,0.14-0.07,0.28-0.11,0.41c-0.12-0.05-0.24-0.1-0.42-0.18c-0.08,0.39-0.16,0.81-0.25,1.3
		c-0.19-0.24-0.34-0.43-0.52-0.64c-0.16,0.36,0.1,0.85-0.45,1c-0.05-0.11-0.09-0.24-0.16-0.34c-0.06-0.08-0.18-0.16-0.26-0.15
		c-0.08,0.01-0.2,0.12-0.22,0.2c-0.07,0.25-0.09,0.52-0.16,0.76c-0.04,0.14-0.15,0.26-0.24,0.38c-0.04,0.06-0.11,0.11-0.13,0.18
		c-0.16,0.4-0.57,0.64-1.05,0.58c0.03-0.08,0.05-0.15,0.08-0.22c0.11-0.26,0.23-0.51-0.14-0.67c-0.08-0.04-0.11-0.17-0.18-0.24
		c-0.06-0.06-0.15-0.14-0.22-0.13c-0.06,0.01-0.13,0.12-0.14,0.2c-0.03,0.2-0.02,0.4-0.04,0.6c-0.02,0.27,0.02,0.54-0.29,0.73
		c-0.14,0.08-0.16,0.33-0.26,0.5c-0.16,0.27-0.24,0.27-0.45,0.05c-0.24-0.24-0.52-0.45-0.69-0.73c-0.15-0.25-0.23-0.57-0.25-0.87
		c-0.05-0.63-0.09-0.67-0.66-0.37c-0.15,0.08-0.29,0.18-0.44,0.26c-0.26,0.14-0.51,0.16-0.77-0.18c-0.15,0.33-0.27,0.61-0.39,0.89
		c-0.66-0.33-0.85-0.98-0.45-1.56c0.04-0.06,0.04-0.18,0.02-0.25c-0.06-0.22-0.04-0.38,0.21-0.43c0.5-0.1,1-0.2,1.5-0.3
		c0.1-0.02,0.19-0.02,0.35-0.04c-0.08-0.12-0.12-0.21-0.19-0.27c-0.22-0.19-0.38-0.4-0.43-0.7c-0.04-0.23-0.47-0.32-0.76-0.19
		c-0.14,0.06-0.28,0.15-0.48,0.25c0.09-0.51,0.24-0.91,0.62-1.18c0.34-0.24,0.68-0.11,0.99,0.07c0.18,0.1,0.33,0.18,0.56,0.12
		c0.3-0.08,0.6,0.16,0.67,0.47c0.01,0.06,0.01,0.12,0.02,0.18c0.03,0.61,0.37,0.81,0.92,0.51c0.31-0.17,0.59-0.42,0.83-0.68
		c0.31-0.33,0.28-0.64,0.02-1.01c-0.26-0.36-0.53-0.71-0.74-1.1c-0.49-0.92-0.33-1.71,0.5-2.35c0.41-0.32,0.88-0.55,1.33-0.82
		c0.17-0.1,0.34-0.19,0.49-0.36c-0.52,0.13-1.05,0.26-1.57,0.39c-0.02-0.05-0.04-0.1-0.06-0.15c0.27-0.14,0.54-0.27,0.88-0.45
		c-0.11-0.02-0.16-0.05-0.19-0.04c-1.19,0.26-2.38,0.5-3.48,1.05c-0.38,0.19-0.74,0.44-1.09,0.68c-0.23,0.16-0.39,0.38-0.7,0.43
		c-0.12,0.02-0.24,0.2-0.32,0.33c-0.13,0.2-0.24,0.42-0.35,0.63c-0.17,0.31-0.2,0.31-0.44-0.01c-0.24,0.37-0.47,0.73-0.74,1.14
		c-0.12-0.12-0.21-0.22-0.32-0.35c-0.29,0.46-0.6,0.94-0.9,1.41c-0.03-0.01-0.06-0.01-0.08-0.02c-0.04-0.14-0.08-0.27-0.11-0.41
		c-0.06-0.26-0.21-0.3-0.42-0.19c-0.29,0.15-0.57,0.31-0.58,0.73c-0.46-0.2-0.63,0.1-0.84,0.39c-0.16,0.23-0.38,0.41-0.58,0.6
		c-0.05,0.05-0.16,0.07-0.22,0.05c-0.05-0.02-0.06-0.13-0.07-0.2c-0.04-0.16-0.07-0.33-0.11-0.5c-0.15,0.11-0.31,0.2-0.43,0.32
		c-0.27,0.28-0.52,0.57-0.77,0.86c-0.03-0.02-0.07-0.03-0.1-0.05c0-0.29,0-0.58,0-0.9c-0.73,0.12-0.9,0.78-1.31,1.2
		c-0.25-0.29-0.14-0.62-0.14-0.96c-0.5,0.23-0.72,0.71-1.12,1.14c0-0.27,0.01-0.45,0-0.63c-0.01-0.1-0.05-0.29-0.1-0.29
		c-0.22-0.03-0.45-0.04-0.66,0.01c-0.06,0.01-0.12,0.21-0.13,0.33c-0.04,0.43-0.02,0.86-0.09,1.28c-0.08,0.44-0.58,0.77-1.17,0.81
		c0.06-0.16,0.12-0.3,0.15-0.45c0.04-0.14,0.05-0.29,0.07-0.44c-0.76,0-0.76,0-1-0.76c-0.32,0.01-0.59,0.3-0.58,0.62
		c0,0.08,0.02,0.16,0.03,0.24c0.06,0.5,0.01,0.56-0.52,0.56c-0.16,0.52,0.16,0.86,0.53,1.25c-0.58,0.03-1.06-0.05-1.48-0.33
		c-0.47-0.31-0.51-0.78-0.42-1.28c-0.34-0.1-0.43-0.33-0.22-0.6c0.12-0.15,0.29-0.25,0.4-0.4c0.09-0.12,0.1-0.29,0.15-0.44
		c-0.13-0.02-0.27-0.1-0.38-0.06c-0.22,0.08-0.42,0.22-0.63,0.33c-0.36,0.19-0.67,0.47-1.12,0.45c-0.17-0.01-0.34,0.39-0.32,0.69
		c0.01,0.16,0.05,0.33,0.08,0.52c-0.44-0.08-0.74-0.29-0.9-0.66c-0.16-0.38-0.04-0.72,0.16-1.05c0.08-0.14,0.15-0.3,0.16-0.46
		c0.04-0.48,0.18-0.61,0.65-0.62c0.15,0,0.3-0.09,0.45-0.15c0.24-0.1,0.48-0.19,0.71-0.31c0.08-0.04,0.17-0.15,0.19-0.23
		c0.06-0.39-0.15-0.64-0.47-0.83c-0.38-0.22-0.41-0.42-0.09-0.87c-0.38,0.03-0.69,0.05-1,0.08c0.12-0.68,0.73-1.11,1.4-0.97
		c0.23,0.05,0.45,0.17,0.68,0.24c0.12,0.04,0.26,0.06,0.38,0.11c0.12,0.06,0.28,0.13,0.31,0.23c0.06,0.27,0.1,0.55,0.08,0.82
		c-0.05,0.49,0.09,0.69,0.59,0.63c0.28-0.03,0.56-0.16,0.82-0.29c0.71-0.35,1.41-0.73,2.1-1.11c0.18-0.1,0.33-0.25,0.55-0.43
		c-0.58-0.15-1.08-0.29-1.67-0.45c0.23-0.16,0.39-0.27,0.55-0.38c0-0.03,0-0.06,0-0.09c-0.52-0.11-1.03-0.22-1.64-0.35
		c0.27-0.16,0.46-0.27,0.72-0.43c-0.45-0.12-0.82-0.22-1.26-0.34c0.17-0.15,0.28-0.24,0.37-0.34c0.19-0.18,0.16-0.31-0.09-0.38
		c-0.26-0.07-0.52-0.13-0.85-0.22c0.17-0.15,0.29-0.26,0.46-0.41c-0.35-0.1-0.63-0.19-0.98-0.29c0.12-0.17,0.2-0.28,0.3-0.42
		c-0.06-0.04-0.11-0.08-0.17-0.1c-0.18-0.07-0.37-0.11-0.3-0.39c0.01-0.06-0.14-0.16-0.21-0.24c-0.05,0.08-0.12,0.16-0.15,0.25
		c-0.03,0.11-0.02,0.24-0.03,0.36c-0.02,0.22-0.06,0.38-0.35,0.24c-0.09-0.04-0.23,0.03-0.34,0.05c-0.38,0.04-0.77,0.14-1.15,0.11
		c-0.56-0.04-0.9-0.58-0.81-1.19c0.1,0.04,0.18,0.09,0.27,0.12c0.15,0.04,0.31,0.1,0.46,0.09c0.2-0.02,0.35-0.1,0.28-0.38
		c-0.09-0.35,0.07-0.55,0.44-0.59c0.42-0.05,0.53-0.18,0.51-0.55c-0.01-0.25-0.15-0.36-0.37-0.31c-0.25,0.06-0.5,0.15-0.74,0.24
		c-0.19,0.07-0.36,0.04-0.45-0.12c-0.12-0.2-0.27-0.18-0.41-0.1c-0.18,0.12-0.33,0.28-0.48,0.44c-0.07,0.07-0.11,0.18-0.2,0.27
		c-0.18-0.51-0.37-1.04-0.07-1.52c0.24-0.37,0.58-0.76,0.97-0.92c0.38-0.16,0.88-0.03,1.33-0.03c0.11-0.31,0.06-0.43-0.26-0.54
		c-0.33-0.12-0.43-0.27-0.39-0.62c0.05-0.43-0.09-0.65-0.51-0.8c-0.11-0.04-0.22-0.07-0.34-0.11c0.52-0.7,1.6-0.62,1.96,0.12
		c0.03,0.07,0.07,0.17,0.13,0.19c0.35,0.12,0.37,0.41,0.39,0.7c0.01,0.22,0.01,0.44,0.03,0.66c0.02,0.25,0.25,0.52,0.44,0.51
		c0.28-0.02,0.36-0.24,0.4-0.46c0.04-0.18,0-0.38,0.04-0.57c0.02-0.1,0.12-0.24,0.21-0.26c0.49-0.1,0.66-0.4,0.45-0.84
		c-0.02-0.05-0.04-0.11-0.08-0.21c0.4,0.05,0.67,0.22,0.86,0.52c0.22,0.35,0.21,0.71-0.02,1.05c-0.1,0.15-0.16,0.27-0.1,0.46
		c0.07,0.21-0.01,0.36-0.25,0.43c-0.26,0.08-0.48,0.23-0.52,0.53c-0.05,0.3,0.16,0.47,0.38,0.6c1.22,0.73,2.45,1.45,3.68,2.18
		c0.29,0.17,0.46,0.06,0.61-0.22c-0.25-0.09-0.5-0.17-0.83-0.29c0.17-0.11,0.27-0.17,0.36-0.22c0.26-0.15,0.54-0.28,0.78-0.45
		c0.27-0.18,0.43-0.44,0.39-0.83c-0.17,0.05-0.32,0.1-0.54,0.16c0.17-0.41,0.33-0.78,0.5-1.2c-0.2,0.05-0.31,0.07-0.46,0.11
		c0.04-0.14,0.04-0.23,0.09-0.3c0.35-0.44,0.14-0.99,0.27-1.47c0.01-0.04-0.07-0.11-0.12-0.15c-0.12-0.12-0.26-0.22-0.37-0.35
		c-0.38-0.45-0.37-1-0.01-1.4c0.36-0.4,0.97-0.48,1.43-0.18c0.14,0.09,0.27,0.21,0.34,0.27c0.33-0.06,0.61-0.09,0.88-0.18
		c0.17-0.06,0.31-0.2,0.5-0.32c0.35,0.61,0.65-0.04,1.01-0.07c0.04,0.09,0.08,0.18,0.14,0.3c0.12-0.04,0.24-0.08,0.36-0.12
		c0.15-0.05,0.27-0.11,0.39,0.12c0.07,0.14,0.34,0.16,0.46,0.28c0.18,0.18,0.32,0.05,0.49,0.03c0.22-0.03,0.47-0.05,0.67,0.01
		c0.34,0.1,0.56,0.37,0.57,0.74c0.01,0.35-0.18,0.62-0.5,0.72c-0.36,0.11-0.52,0.31-0.53,0.68c0,0.06-0.02,0.12-0.06,0.17
		c-0.21,0.28-0.2,0.56-0.03,0.86c0.05,0.08,0.04,0.25-0.01,0.33c-0.28,0.46-0.23,0.71,0.21,1.04c0.08,0.06,0.1,0.19,0.16,0.28
		c0.04,0.07,0.08,0.15,0.14,0.2c0.19,0.17,0.38,0.34,0.63,0.56c-0.2,0.05-0.31,0.07-0.47,0.11c0.34,0.27,0.58,0.55,1.07,0.56
		c1.05,0.01,2.05-0.28,3.05-0.5c1.76-0.39,3.55-0.46,5.33-0.55c0.79-0.04,1.58-0.07,2.37-0.12c0.85-0.06,1.61,0.3,2.4,0.52
		c1.61,0.45,3.23,0.75,4.91,0.62c0.65-0.05,1.29-0.13,1.88-0.48c1.43-0.83,1.5-2.19,0.13-3.11c-1.09-0.73-2.28-1.06-3.6-0.86
		c-1.83,0.26-3.63,0.66-5.4,1.21c-1.17,0.37-2.37,0.61-3.59,0.36c-0.58-0.12-1.18-0.31-1.68-0.61c-1.6-0.98-3.2-0.89-4.84-0.14
		C128.63,114.02,128.32,114.16,127.94,114.34z"/>
	<path class="st1" d="M138.64,157.92c-0.14,0-0.29-0.01-0.43,0c-0.34,0.02-0.4,0.11-0.34,0.44c0.03,0.14,0.07,0.28,0.06,0.42
		c-0.01,0.14-0.07,0.28-0.12,0.42c-0.12-0.04-0.24-0.08-0.43-0.15c-0.08,0.38-0.16,0.8-0.26,1.29c-0.19-0.24-0.35-0.43-0.52-0.65
		c-0.12,0.37,0.07,0.84-0.44,1.01c-0.03-0.07-0.05-0.15-0.1-0.21c-0.1-0.11-0.21-0.22-0.31-0.32c-0.09,0.13-0.22,0.25-0.27,0.39
		c-0.07,0.2-0.08,0.41-0.12,0.62c-0.01,0.05,0,0.12-0.03,0.14c-0.4,0.35-0.57,0.97-1.23,0.99c-0.05,0-0.09-0.01-0.17-0.01
		c0.03-0.09,0.04-0.15,0.07-0.21c0.12-0.27,0.23-0.52-0.14-0.71c-0.09-0.04-0.12-0.18-0.19-0.26c-0.16-0.18-0.28-0.16-0.34,0.07
		c-0.04,0.16-0.04,0.34-0.05,0.51c-0.01,0.32,0.05,0.66-0.31,0.87c-0.09,0.05-0.1,0.24-0.16,0.35c-0.07,0.13-0.17,0.24-0.28,0.39
		c-0.1-0.08-0.19-0.13-0.25-0.2c-0.24-0.24-0.49-0.46-0.7-0.72c-0.12-0.16-0.17-0.38-0.24-0.57c-0.02-0.07-0.01-0.16-0.01-0.24
		c0-0.61,0.03-0.78-0.71-0.4c-0.13,0.07-0.26,0.16-0.39,0.23c-0.25,0.14-0.49,0.15-0.7-0.1c-0.35,0.15-0.3,0.52-0.42,0.79
		c-0.68-0.14-0.89-1.01-0.4-1.63c-0.16-0.46-0.17-0.5,0.31-0.63c0.44-0.12,0.9-0.17,1.35-0.26c0.09-0.02,0.19-0.03,0.34-0.05
		c-0.09-0.13-0.14-0.23-0.22-0.3c-0.21-0.17-0.35-0.37-0.4-0.65c-0.05-0.25-0.49-0.35-0.81-0.2c-0.13,0.06-0.25,0.15-0.44,0.26
		c0.1-0.52,0.26-0.93,0.65-1.2c0.33-0.23,0.67-0.08,0.99,0.08c0.16,0.08,0.35,0.11,0.53,0.11c0.33-0.01,0.59,0.16,0.67,0.48
		c0.01,0.06,0.02,0.12,0.02,0.18c0.03,0.62,0.36,0.82,0.92,0.51c0.31-0.17,0.6-0.41,0.84-0.68c0.31-0.34,0.28-0.66,0.01-1.04
		c-0.26-0.36-0.53-0.71-0.74-1.1c-0.48-0.91-0.32-1.69,0.5-2.32c0.41-0.31,0.88-0.55,1.33-0.82c0.17-0.1,0.34-0.19,0.5-0.33
		c-0.55,0.03-1.05,0.28-1.59,0.31c-0.01-0.04-0.02-0.07-0.03-0.11c0.28-0.14,0.57-0.29,0.85-0.43c-0.01-0.02-0.01-0.04-0.02-0.06
		c-0.07,0-0.14,0-0.21,0.01c-1.13,0.24-2.27,0.47-3.31,0.99c-0.51,0.26-0.97,0.63-1.45,0.95c-0.07,0.04-0.12,0.13-0.19,0.14
		c-0.45,0.04-0.59,0.4-0.77,0.72c-0.11,0.19-0.21,0.38-0.42,0.64c-0.05-0.1-0.09-0.2-0.17-0.36c-0.26,0.4-0.48,0.75-0.76,1.18
		c-0.11-0.13-0.19-0.23-0.31-0.37c-0.3,0.47-0.6,0.95-0.96,1.51c-0.06-0.22-0.11-0.36-0.14-0.51c-0.05-0.23-0.2-0.31-0.4-0.2
		c-0.24,0.14-0.55,0.22-0.59,0.59c0,0.04-0.14,0.12-0.19,0.11c-0.28-0.06-0.42,0.1-0.57,0.3c-0.18,0.24-0.37,0.47-0.58,0.68
		c-0.07,0.07-0.21,0.07-0.32,0.11c-0.02-0.09-0.04-0.19-0.05-0.28c-0.01-0.06,0.01-0.12,0-0.18c-0.02-0.08-0.05-0.2-0.11-0.22
		c-0.07-0.02-0.19,0.01-0.24,0.07c-0.13,0.13-0.22,0.29-0.34,0.42c-0.21,0.22-0.42,0.44-0.64,0.66c-0.03-0.02-0.06-0.03-0.09-0.05
		c0-0.28,0-0.56,0-0.88c-0.75,0.11-0.91,0.78-1.31,1.19c-0.03,0-0.06,0-0.1-0.01c-0.03-0.3-0.06-0.6-0.09-0.93
		c-0.46,0.24-0.7,0.69-1.02,1.07c-0.03-0.01-0.06-0.02-0.09-0.03c0.01-0.18,0.03-0.36,0.02-0.54c-0.01-0.1-0.06-0.28-0.11-0.29
		c-0.22-0.03-0.45-0.04-0.66,0c-0.07,0.01-0.13,0.21-0.14,0.33c-0.04,0.42-0.02,0.84-0.08,1.25c-0.07,0.45-0.6,0.82-1.15,0.83
		c0.07-0.29,0.14-0.58,0.21-0.89c-0.71,0.02-0.71,0.02-1.03-0.76c-0.35,0.04-0.6,0.33-0.57,0.67c0,0.04,0.01,0.08,0.01,0.12
		c0.07,0.58,0.07,0.58-0.51,0.65c-0.14,0.5,0.14,0.85,0.54,1.22c-0.57,0.06-1.03-0.04-1.45-0.29c-0.47-0.29-0.55-0.76-0.45-1.27
		c-0.37-0.15-0.43-0.38-0.17-0.67c0.11-0.13,0.27-0.22,0.37-0.35c0.08-0.12,0.1-0.28,0.15-0.42c-0.13-0.03-0.28-0.13-0.4-0.09
		c-0.22,0.07-0.41,0.21-0.61,0.32c-0.36,0.2-0.69,0.48-1.15,0.47c-0.09,0-0.25,0.24-0.27,0.39c-0.05,0.25-0.01,0.51-0.01,0.77
		c-0.35,0.08-0.97-0.44-0.93-0.98c0.01-0.15,0.03-0.31,0.1-0.43c0.17-0.3,0.35-0.59,0.35-0.96c0.01-0.26,0.2-0.39,0.46-0.36
		c0.27,0.03,0.48-0.04,0.71-0.2c0.23-0.15,0.51-0.22,0.79-0.33c0.05-0.43-0.04-0.78-0.47-1.02c-0.4-0.23-0.42-0.38-0.13-0.85
		c-0.35,0.03-0.66,0.05-0.97,0.08c0.1-0.67,0.78-1.14,1.42-0.98c0.2,0.05,0.39,0.16,0.59,0.23c0.15,0.06,0.32,0.09,0.47,0.15
		c0.1,0.04,0.25,0.12,0.27,0.2c0.06,0.27,0.11,0.55,0.09,0.82c-0.05,0.53,0.18,0.77,0.71,0.64c0.27-0.07,0.53-0.19,0.78-0.31
		c0.68-0.35,1.35-0.7,2.02-1.07c0.19-0.1,0.35-0.26,0.6-0.44c-0.6-0.16-1.11-0.3-1.7-0.46c0.24-0.15,0.4-0.25,0.56-0.35
		c0-0.04,0-0.08,0-0.12c-0.51-0.11-1.03-0.22-1.63-0.35c0.27-0.15,0.45-0.26,0.64-0.36c0-0.03,0-0.05,0.01-0.08
		c-0.38-0.11-0.75-0.21-1.21-0.34c0.17-0.15,0.27-0.22,0.36-0.31c0.22-0.2,0.2-0.3-0.09-0.38c-0.27-0.07-0.54-0.14-0.87-0.22
		c0.19-0.15,0.32-0.26,0.51-0.41c-0.36-0.1-0.65-0.19-0.99-0.28c0.12-0.18,0.2-0.3,0.3-0.44c-0.1-0.04-0.19-0.09-0.28-0.12
		c-0.13-0.05-0.21-0.1-0.2-0.28c0.01-0.1-0.13-0.21-0.2-0.32c-0.06,0.1-0.13,0.19-0.17,0.3c-0.03,0.09-0.01,0.2-0.03,0.3
		c-0.02,0.22-0.04,0.43-0.36,0.26c-0.08-0.04-0.21,0.01-0.31,0.05c-0.42,0.13-0.83,0.22-1.27,0.11c-0.5-0.13-0.82-0.66-0.69-1.18
		c0.18,0.07,0.35,0.15,0.53,0.19c0.34,0.07,0.5-0.09,0.46-0.43c-0.04-0.3,0.11-0.49,0.42-0.53c0.47-0.05,0.59-0.2,0.54-0.61
		c-0.03-0.23-0.15-0.31-0.34-0.26c-0.25,0.06-0.5,0.15-0.74,0.24c-0.19,0.07-0.34,0.03-0.49-0.12c-0.08-0.08-0.27-0.15-0.34-0.11
		c-0.2,0.13-0.38,0.31-0.55,0.48c-0.06,0.06-0.09,0.17-0.17,0.33c-0.2-0.59-0.37-1.13-0.07-1.6c0.23-0.37,0.58-0.76,0.97-0.92
		c0.38-0.16,0.88-0.03,1.33-0.03c0.09-0.35,0.06-0.41-0.27-0.53c-0.3-0.1-0.43-0.31-0.4-0.59c0.06-0.48-0.12-0.75-0.6-0.89
		c-0.07-0.02-0.14-0.05-0.22-0.08c0.45-0.45,1.15-0.65,1.54-0.34c0.35,0.27,0.64,0.65,0.87,1.03c0.11,0.18,0.03,0.47,0.07,0.7
		c0.04,0.23,0.1,0.47,0.22,0.66c0.14,0.22,0.4,0.2,0.51-0.04c0.1-0.22,0.14-0.47,0.16-0.72c0.02-0.23,0-0.4,0.33-0.4
		c0.33,0,0.52-0.42,0.39-0.74c-0.04-0.09-0.08-0.17-0.16-0.33c0.46,0.11,0.76,0.28,0.95,0.63c0.18,0.35,0.15,0.69-0.07,0.99
		c-0.11,0.15-0.15,0.25-0.09,0.42c0.08,0.22,0.01,0.38-0.25,0.45c-0.26,0.08-0.48,0.25-0.52,0.53c-0.04,0.28,0.15,0.45,0.37,0.57
		c1.21,0.73,2.43,1.46,3.65,2.16c0.37,0.21,0.39,0.18,0.65-0.19c-0.25-0.09-0.5-0.18-0.83-0.29c0.63-0.45,1.5-0.54,1.56-1.5
		c-0.21,0.06-0.36,0.1-0.57,0.16c0.18-0.41,0.33-0.76,0.51-1.18c-0.19,0.04-0.3,0.07-0.47,0.1c0.04-0.13,0.04-0.24,0.1-0.31
		c0.36-0.43,0.12-0.97,0.26-1.44c0.01-0.04-0.07-0.13-0.13-0.18c-0.1-0.1-0.22-0.18-0.31-0.28c-0.41-0.45-0.44-1.02-0.07-1.45
		c0.36-0.42,0.99-0.5,1.48-0.18c0.13,0.09,0.25,0.2,0.31,0.25c0.33-0.06,0.61-0.09,0.88-0.17c0.17-0.06,0.31-0.2,0.53-0.35
		c0.06,0.1,0.13,0.23,0.2,0.36c0.3-0.18,0.52-0.31,0.77-0.45c0.05,0.12,0.1,0.21,0.15,0.33c0.21-0.06,0.41-0.12,0.53-0.16
		c0.33,0.22,0.58,0.4,0.85,0.56c0.05,0.03,0.16-0.04,0.25-0.07c0.52-0.18,1.06,0.02,1.25,0.47c0.18,0.43-0.03,0.86-0.57,1.05
		c-0.24,0.09-0.37,0.2-0.37,0.46c0,0.06-0.02,0.12-0.04,0.18c-0.17,0.35-0.33,0.7-0.05,1.08c0.04,0.05,0,0.2-0.05,0.28
		c-0.26,0.41-0.23,0.69,0.16,0.97c0.13,0.09,0.29,0.14,0.22,0.37c-0.01,0.03,0.09,0.11,0.14,0.16c0.19,0.17,0.38,0.34,0.62,0.55
		c-0.19,0.04-0.29,0.07-0.45,0.11c0.3,0.26,0.51,0.54,0.94,0.56c1.2,0.04,2.31-0.38,3.47-0.55c1.16-0.17,2.33-0.29,3.5-0.4
		c0.86-0.08,1.72-0.12,2.59-0.17c1.24-0.07,2.44,0.03,3.64,0.43c1.68,0.57,3.43,0.81,5.23,0.65c0.84-0.08,1.59-0.31,2.21-0.9
		c0.69-0.66,0.75-1.55,0.06-2.21c-1.08-1.04-2.4-1.5-3.91-1.33c-2.02,0.23-3.98,0.72-5.92,1.31c-1.06,0.32-2.14,0.45-3.24,0.28
		c-0.64-0.1-1.25-0.31-1.8-0.65c-1.34-0.83-2.74-0.9-4.18-0.33c-0.41,0.16-0.81,0.35-1.21,0.53c-0.09,0.04-0.19,0.08-0.35,0.15
		c0.25-1.16,1.12-1.66,1.94-2.24c-0.48,0-0.96,0-1.51,0c0.26-0.38,0.6-0.49,0.95-0.52c0.36-0.03,0.72-0.01,1.18-0.01
		c-0.31-0.16-0.55-0.28-0.79-0.4c0.01-0.03,0.01-0.05,0.02-0.08c0.81-0.1,1.6,0.11,2.48,0.27c-0.18-0.2-0.3-0.34-0.48-0.55
		c0.82-0.01,1.52,0.13,2.18,0.54c0.02-0.13,0.03-0.23,0.06-0.37c0.46,0.18,0.76,0.51,1.05,0.84c0.12-0.14,0.22-0.29,0.36-0.4
		c0.19-0.15,0.28-0.09,0.3,0.15c0.01,0.15,0.02,0.3,0.03,0.47c0.16-0.02,0.29-0.04,0.48-0.07c-0.12,0.51,0.24,0.59,0.59,0.69
		c0.87,0.26,1.72,0.17,2.58-0.09c1.02-0.31,2.03-0.66,3.08-0.83c2.05-0.33,4.11-0.37,6.07,0.51c0.75,0.34,1.48,0.75,1.93,1.49
		c0.75,1.24,0.58,2.57-0.45,3.64c-0.95,1-2.14,1.44-3.5,1.39c-1.43-0.05-2.85-0.14-4.28-0.2c-0.09,0-0.19-0.01-0.34-0.02
		c0.78,0.86,1.47,1.73,2.49,2.24c0.85,0.42,1.73,0.49,2.63,0.14c0.05-0.02,0.09-0.03,0.14-0.05c0.01,0,0.02,0,0.08,0.02
		c0,0.12,0,0.25,0,0.39c0.01,0.3,0.12,0.43,0.42,0.44c0.28,0,0.56-0.03,0.89-0.05c-0.03,0.15-0.07,0.29-0.1,0.43
		c-0.05,0.3,0,0.36,0.3,0.36c0.16,0,0.32-0.01,0.48,0.03c0.07,0.01,0.12,0.11,0.18,0.17c-0.06,0.05-0.1,0.12-0.17,0.14
		c-0.12,0.05-0.24,0.07-0.44,0.13c0.32,0.24,0.59,0.43,0.95,0.69c-0.27,0.07-0.46,0.13-0.7,0.19c0.24,0.2,0.46,0.39,0.7,0.6
		c-0.14,0.11-0.26,0.21-0.42,0.32c0.47,0.44,1.02-0.11,1.48,0.18c-0.01,0.07-0.01,0.16-0.02,0.26c1.04,0.41,1.34,0.97,0.84,1.64
		c-0.18-0.3-0.37-0.6-0.68-0.57c-0.13,0.14-0.19,0.23-0.28,0.3c-0.17,0.14-0.34,0.27-0.51,0.41c0.16,0.16,0.31,0.32,0.48,0.46
		c0.19,0.15,0.41,0.25,0.58,0.41c0.18,0.17,0.17,0.38,0.04,0.61c-0.08,0.14-0.12,0.31-0.12,0.46c0.03,0.66-0.26,1.12-0.9,1.33
		c-0.03-0.13-0.05-0.25-0.08-0.37c-0.03-0.13-0.06-0.25-0.11-0.38c-0.15-0.41-0.31-0.47-0.75-0.28c-0.04-0.1-0.07-0.21-0.14-0.29
		c-0.1-0.1-0.22-0.23-0.34-0.24c-0.09-0.01-0.22,0.15-0.27,0.27c-0.21,0.46-0.37,0.57-0.77,0.51c-0.05-0.01-0.1-0.01-0.14-0.04
		c-0.31-0.16-0.46-0.11-0.61,0.21c-0.04,0.09-0.07,0.19-0.11,0.28c-0.03,0.08-0.06,0.17-0.09,0.25c-0.65-0.18-0.83-0.83-0.55-1.3
		c0.09-0.15,0.09-0.35,0.15-0.52c0.06-0.15,0.13-0.3,0.24-0.41c0.11-0.11,0.28-0.16,0.43-0.24c-0.01-0.03-0.02-0.06-0.03-0.09
		c-0.13,0.02-0.27,0.01-0.39,0.06c-0.26,0.1-0.51,0.23-0.77,0.35c-0.14,0.07-0.27,0.23-0.46,0.05c-0.02-0.02-0.15,0.03-0.21,0.07
		c-0.32,0.23-0.5,0.54-0.58,0.92c-0.02,0.09-0.04,0.18-0.06,0.29c-0.65-0.4-0.77-1.19-0.3-1.76c0.11-0.13,0.25-0.22,0.16-0.44
		c-0.02-0.05,0.16-0.26,0.24-0.25c0.48,0.02,0.85-0.21,1.25-0.43c0.34-0.19,0.75-0.24,1.16-0.36c-0.04-0.39-0.05-0.82-0.48-1.08
		c-0.02-0.01-0.03-0.03-0.04-0.04c-0.38-0.68-1.05-0.75-1.72-0.85c-1.1-0.17-2.21-0.32-3.3-0.53c-1.03-0.2-1.95-0.68-2.74-1.38
		c-0.17-0.15-0.3-0.19-0.49-0.04c-0.29,0.22-0.61,0.39-0.89,0.62c-0.26,0.21-0.23,0.37,0.08,0.51c0.21,0.1,0.43,0.16,0.65,0.23
		c0.55,0.18,0.65,0.34,0.65,0.91c0,0.16,0.12,0.34,0.22,0.48c0.11,0.14,0.27,0.25,0.41,0.37
		C138.66,157.86,138.65,157.89,138.64,157.92z"/>
	<g>
		<path class="st2" d="M75.2,46.67v13.12h-2.22l-2.13-2.48c-1.99,1.86-5.5,2.93-9.8,2.93c-9.22,0-16.84-6.87-16.84-16.04
			c0-9,7.4-15.87,17.37-15.87c7.09,0,12.19,3.46,12.19,8.29c0,2.44-1.73,4.17-4.08,4.17c-2.48,0-4.34-1.73-4.34-4.17
			c0-1.91,1.15-3.37,2.79-3.94c-1.02-0.53-2.35-0.8-3.86-0.8c-6.96,0-10.95,4.34-10.95,13.07c0,7.54,2.97,12.63,8.16,12.63
			c2.88,0,4.74-1.24,5.19-3.46v-7.45H75.2z"/>
		<path class="st2" d="M76.71,44.28c0-9.09,7.27-15.96,16.89-15.96c9.62,0,16.89,6.87,16.89,15.96c0,9.09-7.27,15.96-16.89,15.96
			C83.98,60.23,76.71,53.36,76.71,44.28z M101.35,44.28c0-8.02-3.1-13.3-7.76-13.3c-4.65,0-7.76,5.27-7.76,13.3
			c0,8.02,3.1,13.3,7.76,13.3C98.25,57.57,101.35,52.3,101.35,44.28z"/>
		<path class="st2" d="M136.32,57.13v2.66h-22.56V28.76h8.95v28.37H136.32z"/>
		<path class="st2" d="M147.89,31.42v11.75h10.28v2.66h-10.28v13.96h-8.95V28.76h22.78v2.66H147.89z"/>
	</g>
	<g>
		<path class="st2" d="M180.13,29.04c4.61,5.87,7.05,12.24,6.83,18.84c-0.37,11.44-8.65,21.75-22.22,29.73
			c-0.22-4.73-0.45-9.46-0.67-14.19c-2.35,0.53-4.7,1.06-7.05,1.58c-7.6,1.71-30.87,6.7-54.19,7.59c-23.3-0.89-46.59-5.88-54.2-7.59
			c-2.35-0.52-4.7-1.05-7.05-1.58c-0.37,7.93-0.75,15.85-1.12,23.78c-8.76-2.57-16.7-5.75-23.57-9.43
			c6.04,5.64,13.97,10.64,23.32,14.75c-0.75,15.81-1.49,31.62-2.24,47.42c0.01,0.14,0.03,0.27,0.04,0.41
			c3.7,43.9,57.82,70.48,64.27,73.07c-0.47-0.23-1.22-0.62-2.23-1.16c0-0.03,0-0.06,0-0.09c-4.45-2.5-13.51-7.89-21.83-14.74
			c-1.9-1.56-3.73-3.19-5.5-4.89c-11.53-10.92-22.54-25.91-25.09-44.66c0-24.71,0-26.86,0-52.41c0,0,0.01,0,0.01,0
			c0.86,0.31,1.73,0.61,2.61,0.91c0.22,0.07,0.44,0.14,0.66,0.22c0.67,0.22,1.34,0.44,2.02,0.66c0.29,0.09,0.59,0.18,0.88,0.27
			c0.61,0.19,1.23,0.38,1.85,0.56c0.34,0.1,0.68,0.19,1.02,0.29c0.58,0.17,1.17,0.33,1.76,0.49c0.37,0.1,0.74,0.19,1.11,0.29
			c0.57,0.15,1.15,0.3,1.73,0.44c0.39,0.1,0.78,0.19,1.17,0.28c0.57,0.14,1.14,0.27,1.72,0.4c0.41,0.09,0.81,0.18,1.22,0.27
			c0.57,0.12,1.14,0.25,1.71,0.36c0.42,0.09,0.84,0.17,1.26,0.25c0.57,0.11,1.14,0.22,1.72,0.33c0.43,0.08,0.86,0.16,1.29,0.24
			c0.58,0.1,1.15,0.2,1.74,0.3c0.44,0.07,0.88,0.15,1.32,0.22c0.58,0.09,1.16,0.18,1.75,0.27c0.45,0.07,0.89,0.13,1.34,0.19
			c0.59,0.08,1.18,0.16,1.77,0.23c0.45,0.06,0.91,0.12,1.36,0.17c0.6,0.07,1.2,0.14,1.8,0.2c0.45,0.05,0.9,0.1,1.36,0.15
			c0.62,0.06,1.24,0.12,1.86,0.17c0.45,0.04,0.89,0.08,1.34,0.12c0.65,0.05,1.31,0.1,1.96,0.15c0.42,0.03,0.84,0.06,1.26,0.09
			c0.73,0.05,1.47,0.08,2.21,0.12c0.35,0.02,0.7,0.04,1.05,0.06c1.09,0.05,2.19,0.09,3.29,0.12c1.33,0.04,2.66,0.05,3.98,0.06
			c0.17,0,0.35,0,0.52,0c1.26,0,2.51-0.01,3.76-0.04c0.21,0,0.43-0.01,0.64-0.01c1.24-0.03,2.47-0.07,3.7-0.13
			c0.19-0.01,0.38-0.02,0.56-0.03c1.27-0.06,2.53-0.13,3.78-0.22c0.07,0,0.14-0.01,0.2-0.02c1.29-0.09,2.56-0.2,3.83-0.32
			c0.06-0.01,0.13-0.01,0.19-0.02c1.26-0.12,2.5-0.26,3.74-0.41c0.14-0.02,0.29-0.03,0.43-0.05c1.22-0.15,2.42-0.31,3.62-0.48
			c0.14-0.02,0.27-0.04,0.4-0.06c1.22-0.18,2.44-0.37,3.64-0.58c0.05-0.01,0.1-0.02,0.15-0.03c2.53-0.44,5.01-0.94,7.44-1.49
			c0.03-0.01,0.05-0.01,0.08-0.02c1.2-0.27,2.38-0.56,3.56-0.86c0.06-0.01,0.11-0.03,0.17-0.04c1.18-0.3,2.34-0.62,3.49-0.94
			c0.01,0,0.02-0.01,0.04-0.01c4.7-1.35,9.16-2.91,13.33-4.66c0,0,0,0,0,0c0,27.02,0,28.75,0,53.95
			c-5.24,38.53-46.24,61.23-53.95,65.18c4.24-1.92,18.53-8.75,31.05-18.92c8.66-7.02,15.69-14.62,20.95-22.51
			c6.7-10.06,10.53-20.61,11.56-31.28c0.01-0.14,0.03-0.27,0.04-0.41c-0.78-16.48-1.55-32.96-2.33-49.44
			c16.7-8.73,27.2-20.93,27.64-34.66C193.3,46.16,188.58,36.98,180.13,29.04z"/>
		<path class="st2" d="M181.69,51.27c0.08,0.73,0.15,1.46,0.19,2.18c0.93-4.32,1.03-8.69,0.16-12.98
			c-3.9-19.23-25.9-30.37-51.74-27.75C157.16,13.09,179.1,28.78,181.69,51.27z"/>
	</g>
	<path class="st1" d="M150.94,137.06c-0.12-0.09-0.25-0.16-0.38-0.23c-1.2-0.63-2.43-1.16-3.83-1.03c-0.38,0.04-0.75,0.12-1.12,0.19
		c-1.56,0.29-2.95,0.84-3.78,2.32c-0.07,0.12-0.31,0.22-0.45,0.2c-0.67-0.09-1.33-0.24-2-0.35c-0.42-0.07-0.85-0.19-1.27,0.07
		c-0.07,0.04-0.19,0.02-0.28,0.01c-1.13-0.22-2.26-0.43-3.39-0.66c-1.8-0.36-3.59-0.72-5.38-1.07c-2.25-0.44-4.5-0.86-6.75-1.29
		c-1.18-0.23-2.37-0.46-3.55-0.68c-0.88-0.17-1.76-0.33-2.64-0.5c-1.44-0.28-2.87-0.57-4.31-0.85c-1.04-0.2-2.08-0.37-3.12-0.57
		c-1.08-0.2-2.15-0.42-3.23-0.63c-1.22-0.24-2.45-0.46-3.67-0.71c-0.11-0.02-0.23-0.14-0.29-0.24c-0.1-0.16-0.15-0.35-0.24-0.52
		c-0.86-1.73-2.14-2.88-4.15-3.05c-1.03-0.08-2,0.1-2.83,0.76c-0.47,0.37-0.46,0.38-0.71-0.18c-0.02-0.05-0.04-0.1-0.07-0.15
		c-0.31-0.53-0.31-0.54,0.13-0.95c0.25-0.23,0.32-0.5,0.05-0.74c-0.27-0.24-0.33-0.43-0.05-0.7c0.07-0.07,0.07-0.26,0.04-0.38
		c-0.05-0.21-0.15-0.41-0.23-0.61c-0.22-0.52-0.08-0.82,0.46-1c0.16-0.05,0.31-0.12,0.46-0.15c0.41-0.06,0.51-0.31,0.41-0.67
		c-0.04-0.16-0.1-0.31-0.16-0.46c-0.36-0.78-0.94-1.39-1.55-1.97c-0.17-0.16-0.33-0.34-0.57-0.6c0.29-0.07,0.46-0.13,0.64-0.16
		c0.91-0.15,1.81-0.37,2.73-0.42c0.71-0.04,0.95-0.32,1.18-0.96c0.43-1.21,1.03-2.36,1.57-3.53c0.21-0.45,0.15-0.58-0.34-0.56
		c-1.21,0.06-2.41,0.17-3.61,0.24c-0.66,0.04-1.33,0.06-1.99,0.09c-0.22,0.01-0.36-0.08-0.46-0.31c-0.21-0.51-0.46-1.01-0.72-1.5
		c-0.92-1.8-2.31-2.84-4.41-2.88c-1.88-0.04-3.7,0.19-5.51,0.68c-2.3,0.62-4.01,1.96-5.15,4.01c-0.98,1.76-1.34,3.65-0.89,5.66
		c0.28,1.27,0.95,2.36,1.55,3.48c0.08,0.15,0.1,0.34,0.15,0.51c-0.17,0.01-0.36,0.08-0.52,0.03c-0.77-0.22-1.54-0.46-2.29-0.71
		c-0.91-0.31-1.82-0.62-2.42-1.47c-0.11-0.16-0.3-0.28-0.48-0.37c-0.74-0.4-1.51-0.74-2.22-1.19c-0.85-0.54-1.59-0.59-2.25,0.31
		c-0.1-0.09-0.14-0.12-0.18-0.16c-0.5-0.62-1.02-0.71-1.66-0.24c-0.29,0.21-0.42,0.21-0.69-0.06c-0.19-0.19-0.59-0.24-0.9-0.23
		c-0.28,0.01-0.54,0.22-0.83,0.31c-0.29,0.09-0.59,0.2-0.88,0.18c-0.91-0.08-1.1-0.01-1.49,0.83c-0.14,0.3-0.3,0.4-0.63,0.26
		c-0.6-0.25-1.14-0.06-1.36,0.42c-0.27,0.58-0.09,0.98,0.52,1.35c0.13,0.08,0.28,0.34,0.24,0.46c-0.21,0.71-0.09,1.39,0.17,2.03
		c0.22,0.55,0.08,0.98-0.24,1.4c-0.11,0.14-0.23,0.27-0.34,0.4c-0.15,0.18-0.15,0.31,0.06,0.47c0.13,0.11,0.22,0.32,0.23,0.49
		c0.02,0.21-0.05,0.43-0.1,0.64c-0.56,1.98-1.51,3.8-2.39,5.65c-0.75,1.58-1.52,3.16-1.92,4.87c-0.45,1.95-0.6,3.92-0.28,5.9
		c0.04,0.24,0.23,0.59,0.44,0.66c0.81,0.3,1.64,0.55,2.48,0.74c1.4,0.32,2.82,0.58,4.22,0.89c0.67,0.15,1.33,0.33,1.73,1
		c0.19,0.31,0.56,0.28,0.89,0.26c0.25-0.02,0.51-0.04,0.76,0c1.23,0.19,2.47,0.3,3.64,0.8c0.76,0.32,1.57,0.53,2.33,0.84
		c1,0.41,1.98,0.88,2.97,1.32c0.39,0.17,0.68,0.4,0.88,0.83c0.71,1.57,1.44,3.13,2.25,4.65c1.7,3.19,3.09,6.49,3.89,10.02
		c0.07,0.32-0.03,0.69-0.04,1.03c-0.01,0.22,0,0.45-0.02,0.67c-0.02,0.19-0.03,0.4-0.11,0.56c-0.12,0.24-0.3,0.45-0.44,0.68
		c-0.34,0.59-0.34,0.59,0.12,1.08c0.26,0.27,0.23,0.43-0.06,0.7c-0.12,0.11-0.27,0.35-0.22,0.46c0.15,0.37,0,0.62-0.19,0.9
		c-0.17,0.25-0.3,0.52-0.44,0.78c-1.25,2.21-2.11,4.55-2.36,7.09c-0.14,1.39-0.3,2.8,0.02,4.18c0.41,1.8,0.95,3.57,1.43,5.34
		c0.13,0.45,0.41,0.9,0.4,1.35c-0.03,1.01-0.14,2.03-0.33,3.03c-0.12,0.64-0.25,1.29-0.37,1.93c0,0,3.69,3.24,10.8,7.96
		c4.34,2.88,11.04,6.87,11.04,6.87c0-0.14,0-0.27,0-0.41c0-0.44-0.01-0.88-0.01-1.32c-0.02-2.43-0.14-4.86-0.07-7.29
		c0.11-3.69,0.34-7.38,0.53-11.07c0.19-3.77,0.4-7.54,0.61-11.3c0.01-0.2,0.09-0.43,0.21-0.59c0.33-0.44,0.42-0.95,0.38-1.46
		c-0.03-0.35-0.09-0.64,0.33-0.79c0.09-0.03,0.17-0.18,0.21-0.29c0.17-0.47,0.33-0.95,0.46-1.43c0.04-0.13,0-0.37-0.09-0.43
		c-0.38-0.23-0.39-0.55-0.32-0.92c0.06-0.33,0.09-0.67,0.14-1.01c0.19-1.17,0.44-2.32,0.57-3.5c0.16-1.48,0.25-2.98,0.31-4.47
		c0.16-4.66,0.15-9.32-0.35-13.96c-0.32-3-0.81-5.97-1.2-8.96c-0.12-0.87-0.18-1.71,0.02-2.61c0.61-2.69,0.6-5.41,0.12-8.13
		c-0.06-0.35,0.11-0.34,0.34-0.3c0.37,0.07,0.74,0.16,1.12,0.23c0.9,0.18,1.81,0.35,2.71,0.53c1.14,0.23,2.28,0.46,3.43,0.69
		c0.57,0.12,1.14,0.24,1.71,0.35c0.93,0.19,1.86,0.37,2.79,0.55c1.09,0.21,2.18,0.43,3.27,0.64c0.94,0.18,1.89,0.37,2.83,0.55
		c0.98,0.19,1.97,0.35,2.96,0.54c1.05,0.2,2.1,0.43,3.15,0.63c1.02,0.2,2.05,0.37,3.07,0.57c1.44,0.28,2.87,0.56,4.3,0.84
		c1.32,0.25,2.64,0.5,3.96,0.75c0.08,0.01,0.19,0.05,0.21,0.11c0.11,0.34,0.41,0.36,0.68,0.42c0.5,0.12,1.01,0.23,1.51,0.35
		c0.96,0.23,1.94,0.4,2.88,0.7c1.38,0.43,2.75,0.87,4.2,0.89c1.67,0.02,3.17-0.49,4.24-1.86
		C151.98,138.55,151.93,137.76,150.94,137.06z M78.7,130.14c-0.13,0.37-0.19,0.76-0.27,1.15c-0.06,0.28-0.2,0.44-0.5,0.41
		c-0.07-0.01-0.14,0.01-0.2,0c-0.86-0.19-1.28,0.29-1.62,0.99c-0.31,0.62-0.71,1.19-1.03,1.8c-0.2,0.38-0.49,0.49-0.89,0.51
		c-1.03,0.04-2.07,0.04-3.09,0.18c-1.37,0.18-2.75,0.36-4.08,0.72c-1.34,0.36-2.49,1.18-3.62,1.97c-0.45,0.31-0.91,0.62-1.36,0.94
		c-0.04-0.02-0.08-0.05-0.12-0.07c0-0.43-0.04-0.86,0.01-1.28c0.14-1.35,0.23-2.71,0.49-4.03c0.2-1.02,0.6-1.99,0.94-2.98
		c0.11-0.33,0.32-0.54,0.71-0.33c0.28,0.15,0.39,0.03,0.47-0.27c0.1-0.38,0.23-0.77,0.45-1.08c0.15-0.22,0.46-0.38,0.73-0.46
		c0.65-0.19,0.89-0.71,1.12-1.25c0.12-0.28,0.23-0.56,0.39-0.95c0.32,0.5,0.68,0.76,1.15,0.36c0.5,0.74,0.68,0.78,1.54,0.37
		c0.23-0.11,0.33,0.01,0.28,0.21c-0.1,0.44,0.16,0.55,0.5,0.61c0.17,0.03,0.35,0.05,0.52,0.09c0.59,0.17,1.05,0,1.35-0.54
		c0.17-0.3,0.37-0.36,0.67-0.24c0.88,0.38,1.78,0.73,2.64,1.15c0.85,0.41,1.67,0.9,2.51,1.34C78.69,129.62,78.82,129.78,78.7,130.14
		z"/>
	<g>
		<path class="st1" d="M59.16,87.79c-0.97,1.18-2.9,1.83-5.07,1.37c-3.45-0.73-5.54-3.9-4.61-7.3c0.91-3.33,4.09-5.32,7.37-4.63
			c2.48,0.52,3.95,2.34,3.62,3.92c0,0.02-0.01,0.03-0.01,0.05c-0.15,0.7-0.76,1.19-1.52,1.04c-0.73-0.14-1.18-0.81-1-1.59
			c0.14-0.61,0.63-1.03,1.16-1.08c-0.34-0.47-0.92-0.83-1.72-0.99c-2.46-0.51-4.48,0.9-5.24,3.89c-0.76,2.98,0.43,5.14,3.05,5.69
			c1.47,0.31,2.76-0.14,3.59-1.1C58.9,87.3,59.03,87.55,59.16,87.79z"/>
		<path class="st1" d="M66.22,88.32c-1.52-0.24-3.04-0.5-4.55-0.77c-0.58,0.87-1.17,1.73-1.76,2.6c-0.38-0.07-0.77-0.14-1.15-0.22
			c2.5-3.56,4.91-7.15,7.23-10.78c0.29,0.05,0.57,0.09,0.86,0.14c0.88,4.16,1.86,8.31,2.94,12.46c-0.95-0.13-1.9-0.27-2.84-0.42
			C66.69,90.33,66.45,89.32,66.22,88.32z M65.99,87.35c-0.36-1.61-0.71-3.21-1.05-4.82c-0.89,1.4-1.8,2.79-2.72,4.18
			C63.48,86.94,64.74,87.15,65.99,87.35z"/>
		<path class="st1" d="M79.74,92.01c-0.03,0.3-0.07,0.61-0.1,0.91c-2.88-0.28-5.75-0.61-8.62-1c0.59-3.92,1.18-7.83,1.76-11.75
			c2.65,0.36,5.31,0.67,7.98,0.93c-0.03,0.3-0.07,0.61-0.1,0.91c-1.82-0.18-3.64-0.38-5.46-0.6c-0.2,1.48-0.4,2.96-0.61,4.44
			c1.43,0.18,2.86,0.34,4.29,0.49c-0.03,0.3-0.07,0.61-0.1,0.91c-1.44-0.15-2.88-0.31-4.31-0.49c-0.21,1.54-0.42,3.07-0.63,4.61
			C75.8,91.6,77.77,91.82,79.74,92.01z"/>
		<path class="st1" d="M91.54,81.89c-0.21,3.95-0.42,7.9-0.64,11.85c-0.19-0.01-0.38-0.02-0.57-0.03c-2.61-2.91-5.11-5.87-7.5-8.86
			c-0.27,2.76-0.53,5.53-0.8,8.29c-0.33-0.03-0.65-0.06-0.98-0.09c0.4-3.94,0.8-7.88,1.19-11.81c0.39,0.04,0.78,0.07,1.18,0.1
			c2.16,2.76,4.41,5.49,6.75,8.18c0.15-2.56,0.3-5.12,0.45-7.68C90.93,81.86,91.23,81.88,91.54,81.89z"/>
		<path class="st1" d="M104.98,93.08c0,0.31,0.01,0.61,0.01,0.92c-2.75,0.03-5.5,0.02-8.25-0.04c0.1-3.95,0.2-7.91,0.31-11.86
			c0.85,0.02,1.71,0.03,2.56,0.04c-0.05,3.65-0.09,7.3-0.14,10.95C101.31,93.1,103.15,93.1,104.98,93.08z"/>
		<path class="st1" d="M112.55,90.91c-1.53,0.07-3.07,0.12-4.6,0.16c-0.37,0.96-0.75,1.93-1.14,2.89c-0.39,0.01-0.78,0.01-1.17,0.02
			c1.64-3.98,3.18-7.98,4.63-11.99c0.29-0.01,0.58-0.02,0.86-0.03c1.78,3.89,3.66,7.75,5.64,11.59c-0.95,0.06-1.91,0.11-2.86,0.16
			C113.45,92.78,113,91.85,112.55,90.91z M112.11,90.02c-0.71-1.5-1.41-3-2.09-4.5c-0.56,1.55-1.13,3.09-1.72,4.63
			C109.57,90.12,110.84,90.07,112.11,90.02z"/>
		<path class="st1" d="M132.26,80.06c0.6,3.91,1.21,7.83,1.81,11.74c-0.9,0.12-1.8,0.24-2.7,0.36c-0.47-3.32-0.93-6.63-1.4-9.95
			c-0.91,2.54-1.87,5.08-2.87,7.62c-0.27,0.03-0.55,0.06-0.82,0.09c-1.58-2.26-3.11-4.53-4.59-6.81c0.33,3.33,0.66,6.66,0.98,9.99
			c-0.33,0.03-0.65,0.06-0.98,0.09c-0.37-3.94-0.74-7.88-1.11-11.82c0.94-0.08,1.87-0.16,2.81-0.26c1.26,1.92,2.55,3.82,3.87,5.72
			c0.82-2.14,1.62-4.27,2.38-6.42C130.51,80.3,131.38,80.19,132.26,80.06z"/>
		<path class="st1" d="M144.61,89.16c0.06,0.3,0.12,0.6,0.19,0.9c-2.85,0.53-5.71,1.01-8.58,1.44c-0.64-3.91-1.29-7.82-1.93-11.72
			c2.65-0.39,5.3-0.84,7.94-1.33c0.06,0.3,0.12,0.6,0.19,0.9c-1.8,0.34-3.61,0.65-5.42,0.94c0.26,1.47,0.52,2.94,0.79,4.41
			c1.42-0.23,2.85-0.47,4.27-0.73c0.06,0.3,0.12,0.6,0.18,0.9c-1.43,0.26-2.86,0.5-4.29,0.73c0.27,1.53,0.54,3.05,0.82,4.58
			C140.71,89.87,142.66,89.53,144.61,89.16z"/>
		<path class="st1" d="M156.32,87.6c-0.96,0.23-1.92,0.45-2.88,0.67c-0.33-0.13-0.72-0.48-0.96-0.79c-0.7-0.89-1.39-1.79-2.07-2.69
			c-0.2-0.25-0.45-0.48-0.77-0.6c-0.61,0.13-1.23,0.26-1.84,0.39c0.36,1.56,0.71,3.13,1.07,4.69c-0.89,0.18-1.78,0.36-2.68,0.53
			c-0.83-3.88-1.67-7.75-2.5-11.63c1.56-0.3,3.12-0.62,4.67-0.96c2.31-0.5,4.45,0.49,4.99,2.5c0.42,1.58-0.36,3.04-1.88,3.87
			c0.86,0.05,1.56,0.43,2.03,1.07c0.52,0.64,1.04,1.28,1.56,1.92C155.43,87.02,155.91,87.45,156.32,87.6z M147.59,83.68
			c0.54-0.11,1.07-0.22,1.61-0.34c1.31-0.28,1.92-1.48,1.54-3.01c-0.39-1.55-1.47-2.37-2.75-2.1c-0.52,0.11-1.05,0.22-1.57,0.33
			C146.81,80.26,147.2,81.97,147.59,83.68z"/>
	</g>
</g>
</svg>
